<mxfile host="app.diagrams.net" agent="Mozilla/5.0 (Windows NT 10.0; Win64; x64) AppleWebKit/537.36 (KHTML, like Gecko) Chrome/134.0.0.0 Safari/537.36" version="26.0.16">
  <diagram id="C5RBs43oDa-KdzZeNtuy" name="Page-1">
    <mxGraphModel dx="1780" dy="1755" grid="1" gridSize="10" guides="1" tooltips="1" connect="1" arrows="1" fold="1" page="1" pageScale="1" pageWidth="827" pageHeight="1169" math="0" shadow="0">
      <root>
        <mxCell id="WIyWlLk6GJQsqaUBKTNV-0" />
        <mxCell id="WIyWlLk6GJQsqaUBKTNV-1" parent="WIyWlLk6GJQsqaUBKTNV-0" />
        <mxCell id="sl-Nsvpe6E0mFz8aH6bG-12" value="PCModel" style="swimlane;fontStyle=2;align=center;verticalAlign=top;childLayout=stackLayout;horizontal=1;startSize=26;horizontalStack=0;resizeParent=1;resizeLast=0;collapsible=1;marginBottom=0;rounded=0;shadow=0;strokeWidth=1;" vertex="1" parent="WIyWlLk6GJQsqaUBKTNV-1">
          <mxGeometry x="-50" y="-480" width="200" height="430" as="geometry">
            <mxRectangle x="230" y="140" width="160" height="26" as="alternateBounds" />
          </mxGeometry>
        </mxCell>
        <mxCell id="sl-Nsvpe6E0mFz8aH6bG-13" value="cells&#xa;harvesters&#xa;families&#xa;parkManager&#xa;" style="text;align=left;verticalAlign=top;spacingLeft=4;spacingRight=4;overflow=hidden;rotatable=0;points=[[0,0.5],[1,0.5]];portConstraint=eastwest;" vertex="1" parent="sl-Nsvpe6E0mFz8aH6bG-12">
          <mxGeometry y="26" width="200" height="64" as="geometry" />
        </mxCell>
        <mxCell id="sl-Nsvpe6E0mFz8aH6bG-14" value="numberOfFamilies" style="text;align=left;verticalAlign=top;spacingLeft=4;spacingRight=4;overflow=hidden;rotatable=0;points=[[0,0.5],[1,0.5]];portConstraint=eastwest;rounded=0;shadow=0;html=0;fontStyle=1" vertex="1" parent="sl-Nsvpe6E0mFz8aH6bG-12">
          <mxGeometry y="90" width="200" height="26" as="geometry" />
        </mxCell>
        <mxCell id="sl-Nsvpe6E0mFz8aH6bG-16" value="" style="line;html=1;strokeWidth=1;align=left;verticalAlign=middle;spacingTop=-1;spacingLeft=3;spacingRight=3;rotatable=0;labelPosition=right;points=[];portConstraint=eastwest;" vertex="1" parent="sl-Nsvpe6E0mFz8aH6bG-12">
          <mxGeometry y="116" width="200" height="4" as="geometry" />
        </mxCell>
        <mxCell id="sl-Nsvpe6E0mFz8aH6bG-17" value="initStandard&#xa;initStandardPlusBases&#xa;initializeBiomass&#xa;initializeBiomassFromArray&#xa;initializeCellImages&#xa;initializeFamiliesAndHarvesters&#xa;initializeParkManager&#xa;open&#xa;randomHarvesterStrategyClass&#xa;randomParkManagerStrategyClass&#xa;step&#xa;totalBiomass&#xa;totalHarvest&#xa;&#xa;" style="text;align=left;verticalAlign=top;spacingLeft=4;spacingRight=4;overflow=hidden;rotatable=0;points=[[0,0.5],[1,0.5]];portConstraint=eastwest;" vertex="1" parent="sl-Nsvpe6E0mFz8aH6bG-12">
          <mxGeometry y="120" width="200" height="190" as="geometry" />
        </mxCell>
        <mxCell id="sl-Nsvpe6E0mFz8aH6bG-27" value="&lt;br&gt;&lt;div&gt;&lt;span style=&quot;text-wrap-mode: nowrap;&quot;&gt;&lt;b&gt;initialBiomassArray&lt;/b&gt;&lt;/span&gt;&lt;/div&gt;&lt;div&gt;&lt;span style=&quot;text-wrap-mode: nowrap;&quot;&gt;&lt;b&gt;numberOfColumns&lt;/b&gt;&lt;/span&gt;&lt;/div&gt;&lt;div&gt;&lt;span style=&quot;text-wrap-mode: nowrap;&quot;&gt;&lt;b&gt;numberOfFamilies&lt;/b&gt;&lt;/span&gt;&lt;/div&gt;&lt;div&gt;&lt;span style=&quot;text-wrap-mode: nowrap;&quot;&gt;&lt;b&gt;numberOfFamilies:&lt;/b&gt;&lt;/span&gt;&lt;/div&gt;&lt;div&gt;&lt;span style=&quot;text-wrap-mode: nowrap;&quot;&gt;&lt;b&gt;numberOfRows&lt;/b&gt;&lt;/span&gt;&lt;/div&gt;&lt;div&gt;&lt;span style=&quot;text-wrap-mode: nowrap;&quot;&gt;&lt;b&gt;prefix&lt;/b&gt;&lt;/span&gt;&lt;/div&gt;" style="text;whiteSpace=wrap;html=1;" vertex="1" parent="sl-Nsvpe6E0mFz8aH6bG-12">
          <mxGeometry y="310" width="200" height="90" as="geometry" />
        </mxCell>
        <mxCell id="sl-Nsvpe6E0mFz8aH6bG-29" style="edgeStyle=orthogonalEdgeStyle;rounded=0;orthogonalLoop=1;jettySize=auto;html=1;exitX=1;exitY=0.5;exitDx=0;exitDy=0;" edge="1" parent="sl-Nsvpe6E0mFz8aH6bG-12" source="sl-Nsvpe6E0mFz8aH6bG-17" target="sl-Nsvpe6E0mFz8aH6bG-17">
          <mxGeometry relative="1" as="geometry" />
        </mxCell>
        <mxCell id="sl-Nsvpe6E0mFz8aH6bG-32" value="" style="endArrow=block;endSize=16;endFill=0;html=1;rounded=0;exitX=0.453;exitY=0;exitDx=0;exitDy=0;exitPerimeter=0;entryX=0.5;entryY=1;entryDx=0;entryDy=0;" edge="1" parent="WIyWlLk6GJQsqaUBKTNV-1" source="sl-Nsvpe6E0mFz8aH6bG-12" target="sl-Nsvpe6E0mFz8aH6bG-33">
          <mxGeometry width="160" relative="1" as="geometry">
            <mxPoint x="10" y="-560" as="sourcePoint" />
            <mxPoint x="40" y="-600" as="targetPoint" />
          </mxGeometry>
        </mxCell>
        <mxCell id="sl-Nsvpe6E0mFz8aH6bG-33" value="CMAbstractModel" style="swimlane;fontStyle=2;align=center;verticalAlign=top;childLayout=stackLayout;horizontal=1;startSize=26;horizontalStack=0;resizeParent=1;resizeLast=0;collapsible=1;marginBottom=0;rounded=0;shadow=0;strokeWidth=1;" vertex="1" parent="WIyWlLk6GJQsqaUBKTNV-1">
          <mxGeometry x="-40" y="-560" width="160" height="30" as="geometry">
            <mxRectangle x="230" y="140" width="160" height="26" as="alternateBounds" />
          </mxGeometry>
        </mxCell>
        <mxCell id="sl-Nsvpe6E0mFz8aH6bG-39" value="CMSpatialEntityElement" style="swimlane;fontStyle=2;align=center;verticalAlign=top;childLayout=stackLayout;horizontal=1;startSize=26;horizontalStack=0;resizeParent=1;resizeLast=0;collapsible=1;marginBottom=0;rounded=0;shadow=0;strokeWidth=1;" vertex="1" parent="WIyWlLk6GJQsqaUBKTNV-1">
          <mxGeometry x="290" y="-560" width="160" height="30" as="geometry">
            <mxRectangle x="230" y="140" width="160" height="26" as="alternateBounds" />
          </mxGeometry>
        </mxCell>
        <mxCell id="sl-Nsvpe6E0mFz8aH6bG-46" value="" style="endArrow=diamondThin;endFill=0;endSize=24;html=1;rounded=0;entryX=1;entryY=0.5;entryDx=0;entryDy=0;exitX=0;exitY=0.5;exitDx=0;exitDy=0;" edge="1" parent="WIyWlLk6GJQsqaUBKTNV-1" source="sl-Nsvpe6E0mFz8aH6bG-39" target="sl-Nsvpe6E0mFz8aH6bG-33">
          <mxGeometry width="160" relative="1" as="geometry">
            <mxPoint x="290" y="-540" as="sourcePoint" />
            <mxPoint x="130" y="-540" as="targetPoint" />
          </mxGeometry>
        </mxCell>
        <mxCell id="sl-Nsvpe6E0mFz8aH6bG-60" value="&lt;span style=&quot;font-size: 12px; background-color: rgb(251, 251, 251);&quot;&gt;spatialEntities&lt;/span&gt;" style="edgeLabel;html=1;align=center;verticalAlign=middle;resizable=0;points=[];" vertex="1" connectable="0" parent="sl-Nsvpe6E0mFz8aH6bG-46">
          <mxGeometry x="-0.2047" y="-3" relative="1" as="geometry">
            <mxPoint as="offset" />
          </mxGeometry>
        </mxCell>
        <mxCell id="sl-Nsvpe6E0mFz8aH6bG-49" value="neighbourhood" style="html=1;align=left;spacingLeft=2;endArrow=block;rounded=0;edgeStyle=orthogonalEdgeStyle;curved=0;rounded=0;exitX=0.864;exitY=0.004;exitDx=0;exitDy=0;entryX=0.995;entryY=0.573;entryDx=0;entryDy=0;entryPerimeter=0;exitPerimeter=0;" edge="1" target="sl-Nsvpe6E0mFz8aH6bG-39" parent="WIyWlLk6GJQsqaUBKTNV-1" source="sl-Nsvpe6E0mFz8aH6bG-39">
          <mxGeometry x="-0.7087" relative="1" as="geometry">
            <mxPoint x="449.99999999999983" y="-562.4000000000001" as="sourcePoint" />
            <Array as="points">
              <mxPoint x="428" y="-600" />
              <mxPoint x="540" y="-600" />
              <mxPoint x="540" y="-543" />
            </Array>
            <mxPoint x="460" y="-540" as="targetPoint" />
            <mxPoint as="offset" />
          </mxGeometry>
        </mxCell>
        <mxCell id="sl-Nsvpe6E0mFz8aH6bG-50" value="PCCell" style="swimlane;fontStyle=2;align=center;verticalAlign=top;childLayout=stackLayout;horizontal=1;startSize=26;horizontalStack=0;resizeParent=1;resizeLast=0;collapsible=1;marginBottom=0;rounded=0;shadow=0;strokeWidth=1;" vertex="1" parent="WIyWlLk6GJQsqaUBKTNV-1">
          <mxGeometry x="270" y="-480" width="200" height="250" as="geometry">
            <mxRectangle x="230" y="140" width="160" height="26" as="alternateBounds" />
          </mxGeometry>
        </mxCell>
        <mxCell id="sl-Nsvpe6E0mFz8aH6bG-51" value="biomass&#xa;image&#xa;isProtected&#xa;numberOfNewborns&#xa;unvisitedCounter" style="text;align=left;verticalAlign=top;spacingLeft=4;spacingRight=4;overflow=hidden;rotatable=0;points=[[0,0.5],[1,0.5]];portConstraint=eastwest;" vertex="1" parent="sl-Nsvpe6E0mFz8aH6bG-50">
          <mxGeometry y="26" width="200" height="84" as="geometry" />
        </mxCell>
        <mxCell id="sl-Nsvpe6E0mFz8aH6bG-53" value="" style="line;html=1;strokeWidth=1;align=left;verticalAlign=middle;spacingTop=-1;spacingLeft=3;spacingRight=3;rotatable=0;labelPosition=right;points=[];portConstraint=eastwest;" vertex="1" parent="sl-Nsvpe6E0mFz8aH6bG-50">
          <mxGeometry y="110" width="200" height="4" as="geometry" />
        </mxCell>
        <mxCell id="sl-Nsvpe6E0mFz8aH6bG-54" value="decrementBiomass&#xa;incrementBiomass&#xa;hasHarvesters&#xa;makeNotProtected&#xa;makeProtected&#xa;updateBiomass&#xa;updateNewbornBirds&#xa;useImage:" style="text;align=left;verticalAlign=top;spacingLeft=4;spacingRight=4;overflow=hidden;rotatable=0;points=[[0,0.5],[1,0.5]];portConstraint=eastwest;" vertex="1" parent="sl-Nsvpe6E0mFz8aH6bG-50">
          <mxGeometry y="114" width="200" height="130" as="geometry" />
        </mxCell>
        <mxCell id="sl-Nsvpe6E0mFz8aH6bG-56" style="edgeStyle=orthogonalEdgeStyle;rounded=0;orthogonalLoop=1;jettySize=auto;html=1;exitX=1;exitY=0.5;exitDx=0;exitDy=0;" edge="1" parent="sl-Nsvpe6E0mFz8aH6bG-50" source="sl-Nsvpe6E0mFz8aH6bG-54" target="sl-Nsvpe6E0mFz8aH6bG-54">
          <mxGeometry relative="1" as="geometry" />
        </mxCell>
        <mxCell id="sl-Nsvpe6E0mFz8aH6bG-57" value="" style="endArrow=block;endSize=16;endFill=0;html=1;rounded=0;exitX=0.5;exitY=0;exitDx=0;exitDy=0;entryX=0.5;entryY=1;entryDx=0;entryDy=0;" edge="1" parent="WIyWlLk6GJQsqaUBKTNV-1" source="sl-Nsvpe6E0mFz8aH6bG-50" target="sl-Nsvpe6E0mFz8aH6bG-39">
          <mxGeometry width="160" relative="1" as="geometry">
            <mxPoint x="370.5" y="-482" as="sourcePoint" />
            <mxPoint x="369.5" y="-602" as="targetPoint" />
          </mxGeometry>
        </mxCell>
        <mxCell id="sl-Nsvpe6E0mFz8aH6bG-61" value="name" style="endArrow=block;endFill=1;html=1;edgeStyle=orthogonalEdgeStyle;align=left;verticalAlign=top;rounded=0;exitX=1.018;exitY=0.241;exitDx=0;exitDy=0;exitPerimeter=0;entryX=-0.001;entryY=-0.019;entryDx=0;entryDy=0;entryPerimeter=0;" edge="1" parent="WIyWlLk6GJQsqaUBKTNV-1" source="sl-Nsvpe6E0mFz8aH6bG-17" target="sl-Nsvpe6E0mFz8aH6bG-54">
          <mxGeometry x="-1" relative="1" as="geometry">
            <mxPoint x="170" y="-310" as="sourcePoint" />
            <mxPoint x="330" y="-310" as="targetPoint" />
          </mxGeometry>
        </mxCell>
        <mxCell id="sl-Nsvpe6E0mFz8aH6bG-62" value="1" style="edgeLabel;resizable=0;html=1;align=left;verticalAlign=bottom;" connectable="0" vertex="1" parent="sl-Nsvpe6E0mFz8aH6bG-61">
          <mxGeometry x="-1" relative="1" as="geometry" />
        </mxCell>
        <mxCell id="sl-Nsvpe6E0mFz8aH6bG-64" value="PCColor" style="swimlane;fontStyle=2;align=center;verticalAlign=top;childLayout=stackLayout;horizontal=1;startSize=26;horizontalStack=0;resizeParent=1;resizeLast=0;collapsible=1;marginBottom=0;rounded=0;shadow=0;strokeWidth=1;" vertex="1" parent="WIyWlLk6GJQsqaUBKTNV-1">
          <mxGeometry x="-413" y="-480" width="200" height="140" as="geometry">
            <mxRectangle x="230" y="140" width="160" height="26" as="alternateBounds" />
          </mxGeometry>
        </mxCell>
        <mxCell id="sl-Nsvpe6E0mFz8aH6bG-66" value="" style="line;html=1;strokeWidth=1;align=left;verticalAlign=middle;spacingTop=-1;spacingLeft=3;spacingRight=3;rotatable=0;labelPosition=right;points=[];portConstraint=eastwest;" vertex="1" parent="sl-Nsvpe6E0mFz8aH6bG-64">
          <mxGeometry y="26" width="200" height="4" as="geometry" />
        </mxCell>
        <mxCell id="sl-Nsvpe6E0mFz8aH6bG-67" value="biomass0&#xa;biomass1&#xa;biomass2&#xa;biomass3&#xa;biomassColors&#xa;pieces" style="text;align=left;verticalAlign=top;spacingLeft=4;spacingRight=4;overflow=hidden;rotatable=0;points=[[0,0.5],[1,0.5]];portConstraint=eastwest;fontStyle=1" vertex="1" parent="sl-Nsvpe6E0mFz8aH6bG-64">
          <mxGeometry y="30" width="200" height="110" as="geometry" />
        </mxCell>
        <mxCell id="sl-Nsvpe6E0mFz8aH6bG-68" style="edgeStyle=orthogonalEdgeStyle;rounded=0;orthogonalLoop=1;jettySize=auto;html=1;exitX=1;exitY=0.5;exitDx=0;exitDy=0;" edge="1" parent="sl-Nsvpe6E0mFz8aH6bG-64" source="sl-Nsvpe6E0mFz8aH6bG-67" target="sl-Nsvpe6E0mFz8aH6bG-67">
          <mxGeometry relative="1" as="geometry" />
        </mxCell>
        <mxCell id="sl-Nsvpe6E0mFz8aH6bG-71" value="Object" style="swimlane;fontStyle=2;align=center;verticalAlign=top;childLayout=stackLayout;horizontal=1;startSize=26;horizontalStack=0;resizeParent=1;resizeLast=0;collapsible=1;marginBottom=0;rounded=0;shadow=0;strokeWidth=1;" vertex="1" parent="WIyWlLk6GJQsqaUBKTNV-1">
          <mxGeometry x="-393" y="-560" width="160" height="30" as="geometry">
            <mxRectangle x="230" y="140" width="160" height="26" as="alternateBounds" />
          </mxGeometry>
        </mxCell>
        <mxCell id="sl-Nsvpe6E0mFz8aH6bG-72" value="" style="endArrow=block;endSize=16;endFill=0;html=1;rounded=0;exitX=0.5;exitY=0;exitDx=0;exitDy=0;" edge="1" parent="WIyWlLk6GJQsqaUBKTNV-1" source="sl-Nsvpe6E0mFz8aH6bG-64" target="sl-Nsvpe6E0mFz8aH6bG-71">
          <mxGeometry width="160" relative="1" as="geometry">
            <mxPoint x="-312.5" y="-480" as="sourcePoint" />
            <mxPoint x="-313.5" y="-530" as="targetPoint" />
          </mxGeometry>
        </mxCell>
      </root>
    </mxGraphModel>
  </diagram>
</mxfile>
